<?xml version="1.0" encoding="UTF-8"?>
<svg width="440px" height="66px" viewBox="0 0 440 66" version="1.1" xmlns="http://www.w3.org/2000/svg" xmlns:xlink="http://www.w3.org/1999/xlink">
    <!-- Generator: Sketch 47.1 (45422) - http://www.bohemiancoding.com/sketch -->
    <title>text_whitered</title>
    <desc>Created with Sketch.</desc>
    <defs></defs>
    <g id="TH3BUILD" stroke="none" stroke-width="1" fill="none" fill-rule="evenodd">
        <g id="TEXT-on-Black" transform="translate(-80.000000, -92.000000)">
            <g id="text_whitered" transform="translate(80.000000, 92.000000)">
                <path d="M33.464,18.982 L33.464,59 L33.464,59 C33.464,61.7614237 31.2254237,64 28.464,64 L23.245,64 L23.245,64 C20.4835763,64 18.245,61.7614237 18.245,59 L18.245,18.982 L18.245,18.982 C18.245,16.2205763 16.0064237,13.982 13.245,13.982 L5.445,13.982 L5.445,13.982 C2.68357625,13.982 0.445,11.7434237 0.445,8.982 L0.445,5.988 L0.445,5.988 C0.445,3.22657625 2.68357625,0.988 5.445,0.988 L46.264,0.988 L46.264,0.988 C49.0254237,0.988 51.264,3.22657625 51.264,5.988 L51.264,8.982 L51.264,8.982 C51.264,11.7434237 49.0254237,13.982 46.264,13.982 L38.464,13.982 L38.464,13.982 C35.7025763,13.982 33.464,16.2205763 33.464,18.982 Z M97.989,59 L97.989,42.656 L97.989,42.656 C97.989,39.8945763 95.7504237,37.656 92.989,37.656 L78.425,37.656 L78.425,37.656 C75.6635763,37.656 73.425,39.8945763 73.425,42.656 L73.425,59 L73.425,59 C73.425,61.7614237 71.1864237,64 68.425,64 L63.206,64 L63.206,64 C60.4445763,64 58.206,61.7614237 58.206,59 L58.206,5.988 L58.206,5.988 C58.206,3.22657625 60.4445763,0.988 63.206,0.988 L68.425,0.988 L68.425,0.988 C71.1864237,0.988 73.425,3.22657625 73.425,5.988 L73.425,19.84 L73.425,19.84 C73.425,22.6014237 75.6635763,24.84 78.425,24.84 L92.989,24.84 L92.989,24.84 C95.7504237,24.84 97.989,22.6014237 97.989,19.84 L97.989,5.988 L97.989,5.988 C97.989,3.22657625 100.227576,0.988 102.989,0.988 L108.208,0.988 L108.208,0.988 C110.969424,0.988 113.208,3.22657625 113.208,5.988 L113.208,59 L113.208,59 C113.208,61.7614237 110.969424,64 108.208,64 L102.989,64 L102.989,64 C100.227576,64 97.989,61.7614237 97.989,59 Z M229.353,45.666 C229.353,49.1073505 228.670673,51.9998216 227.306,54.3435 C225.941327,56.6871784 224.131678,58.5709929 221.877,59.995 C219.622322,61.4190071 217.056181,62.4424969 214.1785,63.0655 C211.300819,63.6885031 208.349015,64 205.323,64 L185.225,64 L185.225,64 C182.463576,64 180.225,61.7614237 180.225,59 L180.225,5.988 L180.225,5.988 C180.225,3.22657625 182.463576,0.988 185.225,0.988 L205.323,0.988 C207.755679,0.988 210.247654,1.24016415 212.799,1.7445 C215.350346,2.24883586 217.664323,3.10916059 219.741,4.3255 C221.817677,5.54183942 223.50866,7.18832295 224.814,9.265 C226.11934,11.3416771 226.772,13.981984 226.772,17.186 C226.772,20.6866842 225.822676,23.5791552 223.924,25.8635 C222.025324,28.1478448 219.533349,29.7943283 216.448,30.803 C218.228009,31.2776682 219.904159,31.826496 221.4765,32.6275 C223.048841,33.428504 224.413494,34.4519938 225.5705,35.698 C226.727506,36.9440062 227.647163,38.3976584 228.3295,40.059 C229.011837,41.7203416 229.353,43.589323 229.353,45.666 Z M212.087,19.233 C212.087,17.0969893 211.271175,15.5395049 209.6395,14.5605 C208.007825,13.5814951 205.590016,13.092 202.386,13.092 L199.91,13.092 L199.91,13.092 C197.148576,13.092 194.91,15.3305763 194.91,18.092 L194.91,21.086 L194.91,21.086 C194.91,23.8474237 197.148576,26.086 199.91,26.086 L203.098,26.086 C205.946014,26.086 208.156159,25.5075058 209.7285,24.3505 C211.300841,23.1934942 212.087,21.4876779 212.087,19.233 Z M214.134,44.242 C214.134,41.6313203 213.15501,39.8216717 211.197,38.813 C209.23899,37.8043283 206.62835,37.3 203.365,37.3 L199.91,37.3 L199.91,37.3 C197.148576,37.3 194.91,39.5385763 194.91,42.3 L194.91,46.718 L194.91,46.718 C194.91,49.4794237 197.148576,51.718 199.91,51.718 L203.454,51.718 C204.640673,51.718 205.871827,51.6141677 207.1475,51.4065 C208.423173,51.1988323 209.580161,50.8280027 210.6185,50.294 C211.656839,49.7599973 212.50233,49.0035049 213.155,48.0245 C213.80767,47.0454951 214.134,45.7846744 214.134,44.242 Z M292.81,40.237 C292.81,44.0343523 292.172173,47.4904844 290.8965,50.6055 C289.620827,53.7205156 287.796345,56.3904889 285.423,58.6155 C283.049655,60.8405111 280.18685,62.5759938 276.8345,63.822 C273.48215,65.0680062 269.75902,65.691 265.665,65.691 C261.511646,65.691 257.773683,65.0680062 254.451,63.822 C251.128317,62.5759938 248.310012,60.8405111 245.996,58.6155 C243.681988,56.3904889 241.902006,53.7205156 240.656,50.6055 C239.409994,47.4904844 238.787,44.0343523 238.787,40.237 L238.787,5.988 L238.787,5.988 C238.787,3.22657625 241.025576,0.988 243.787,0.988 L248.917,0.988 L248.917,0.988 C251.678424,0.988 253.917,3.22657625 253.917,5.988 L253.917,38.991 C253.917,40.7116753 254.139498,42.3433256 254.5845,43.886 C255.029502,45.4286744 255.711829,46.8081606 256.6315,48.0245 C257.551171,49.2408394 258.767492,50.2049964 260.2805,50.917 C261.793508,51.6290036 263.617989,51.985 265.754,51.985 C267.890011,51.985 269.714492,51.6290036 271.2275,50.917 C272.740508,50.2049964 273.971662,49.2408394 274.921,48.0245 C275.870338,46.8081606 276.552665,45.4286744 276.968,43.886 C277.383335,42.3433256 277.591,40.7116753 277.591,38.991 L277.591,5.988 L277.591,5.988 C277.591,3.22657625 279.829576,0.988 282.591,0.988 L287.81,0.988 L287.81,0.988 C290.571424,0.988 292.81,3.22657625 292.81,5.988 L292.81,40.237 Z M305.092,59 L305.092,5.988 L305.092,5.988 C305.092,3.22657625 307.330576,0.988 310.092,0.988 L315.4,0.988 L315.4,0.988 C318.161424,0.988 320.4,3.22657625 320.4,5.988 L320.4,59 L320.4,59 C320.4,61.7614237 318.161424,64 315.4,64 L310.092,64 L310.092,64 C307.330576,64 305.092,61.7614237 305.092,59 Z M333.394,59 L333.394,5.988 L333.394,5.988 C333.394,3.22657625 335.632576,0.988 338.394,0.988 L343.702,0.988 L343.702,0.988 C346.463424,0.988 348.702,3.22657625 348.702,5.988 L348.702,45.739 L348.702,45.739 C348.702,48.5004237 350.940576,50.739 353.702,50.739 L368.088,50.739 L368.088,50.739 C370.849424,50.739 373.088,52.9775763 373.088,55.739 L373.088,59 L373.088,59 C373.088,61.7614237 370.849424,64 368.088,64 L338.394,64 L338.394,64 C335.632576,64 333.394,61.7614237 333.394,59 Z M439.037,32.316 C439.037,37.8340276 438.01351,42.59548 435.9665,46.6005 C433.91949,50.60552 431.21985,53.8984871 427.8675,56.4795 C424.51515,59.0605129 420.732688,60.9591606 416.52,62.1755 C412.307312,63.3918394 408.035355,64 403.704,64 L385.208,64 L385.208,64 C382.446576,64 380.208,61.7614237 380.208,59 L380.208,5.988 L380.208,5.988 C380.208,3.22657625 382.446576,0.988 385.208,0.988 L402.992,0.988 C407.442022,0.988 411.832645,1.50716148 416.164,2.5455 C420.495355,3.58383853 424.351983,5.30448799 427.734,7.7075 C431.116017,10.110512 433.845323,13.3293132 435.922,17.364 C437.998677,21.3986868 439.037,26.382637 439.037,32.316 Z M423.195,32.316 C423.195,28.7559822 422.616506,25.8041784 421.4595,23.4605 C420.302494,21.1168216 418.759843,19.2478403 416.8315,17.8535 C414.903157,16.4591597 412.707846,15.4653363 410.2455,14.872 C407.783154,14.2786637 405.24668,13.982 402.636,13.982 L400.071,13.982 L400.071,13.982 C397.309576,13.982 395.071,16.2205763 395.071,18.982 L395.071,45.828 L395.071,45.828 C395.071,48.5894237 397.309576,50.828 400.071,50.828 L402.28,50.828 C405.009347,50.828 407.634821,50.5165031 410.1565,49.8935 C412.678179,49.2704969 414.903157,48.2470071 416.8315,46.823 C418.759843,45.3989929 420.302494,43.5003452 421.4595,41.127 C422.616506,38.7536548 423.195,35.8166842 423.195,32.316 Z" id="THEBUILD" fill="#FFFFFF"></path>
                <path d="M139.212749,22.6284444 L146.555255,16.0642316 L146.555255,16.0642316 C147.378726,15.3280466 147.449486,14.0636952 146.713301,13.2402236 C146.333875,12.8158105 145.791563,12.5732044 145.222274,12.5732044 L130.759566,12.5732044 L130.759566,12.5732044 C127.563714,12.5732044 124.972964,9.98245436 124.972964,6.78660221 L124.972964,6.78660221 L124.972964,6.78660221 C124.972964,3.59075006 127.563714,1 130.759566,1 L161.825031,1 L161.825031,1 C164.900738,1 167.394092,3.49335344 167.394092,6.56906077 L167.394092,6.56906077 L167.394092,6.56906077 C167.394092,10.1073236 165.863259,13.4725475 163.196088,15.7975203 L155.722169,22.3125326 L155.722168,22.3125313 C154.889533,23.0383384 154.802933,24.3017048 155.52874,25.1343392 C155.79737,25.4425081 156.153988,25.6609536 156.55056,25.7602543 C157.507861,25.9999601 158.300057,26.2596636 158.927146,26.5393646 C160.943095,27.4385404 162.714224,28.6857655 164.240586,30.2810773 C165.766948,31.8763892 166.9765,33.7907347 167.869277,36.0241713 C168.762055,38.2576079 169.208437,40.7955659 169.208437,43.6381215 C169.208437,46.3646545 168.675659,48.960623 167.610085,51.426105 C166.544512,53.8915869 165.018173,56.0524769 163.031023,57.9088398 C161.043872,59.7652027 158.624769,61.2444696 155.77364,62.3466851 C152.922511,63.4489005 149.71144,64 146.140329,64 C142.684415,64 139.588539,63.4779058 136.852607,62.4337017 C134.116676,61.3894975 131.75517,59.968241 129.76802,58.1698895 C127.780869,56.371538 126.225732,54.2976637 125.10256,51.9482044 C125.10256,51.9482044 125.10256,51.9482044 125.10256,51.9482044 L125.10256,51.9482044 C123.638338,48.8853349 124.934298,45.2154025 127.997168,43.7511808 C128.442704,43.53819 128.912283,43.3796641 129.39575,43.2790315 L135.735685,41.9594325 L135.735653,41.9592821 C135.897945,41.9255014 136.056893,42.0296803 136.090674,42.1919721 C136.090762,42.1923927 136.090848,42.1928134 136.090934,42.1932344 C136.8043,45.695757 137.749371,48.077248 138.926145,49.3377072 C140.7405,51.2810871 143.116405,52.2527624 146.053932,52.2527624 C147.551494,52.2527624 148.890641,52.0062179 150.071411,51.5131215 C151.252182,51.0200252 152.245742,50.3674074 153.052122,49.5552486 C153.858502,48.7430899 154.463277,47.7859171 154.866467,46.6837017 C155.269657,45.5814862 155.471249,44.450282 155.471249,43.2900552 C155.471249,40.2734656 154.549686,38.0400625 152.706532,36.589779 C150.863378,35.1394955 148.732263,34.4143646 146.313124,34.4143646 C145.391547,34.4143646 144.426785,34.5303856 143.418811,34.7624309 C143.418811,34.7624309 143.418811,34.7624309 143.418811,34.7624309 L143.418811,34.7624309 C141.817555,35.1310551 140.158729,34.4435349 139.287718,33.0502503 L138.018972,31.0207182 L138.018972,31.0207182 C136.321577,28.3055346 136.825548,24.762606 139.212749,22.6284444 Z" id="Path" fill="#FF475D"></path>
            </g>
        </g>
    </g>
</svg>