<?xml version="1.0" encoding="UTF-8"?>
<svg width="176px" height="124px" viewBox="0 0 176 124" version="1.1" xmlns="http://www.w3.org/2000/svg" xmlns:xlink="http://www.w3.org/1999/xlink">
    <!-- Generator: Sketch 50.2 (55047) - http://www.bohemiancoding.com/sketch -->
    <title>Combined Shape</title>
    <desc>Created with Sketch.</desc>
    <defs></defs>
    <g id="Page-1" stroke="none" stroke-width="1" fill="none" fill-rule="evenodd">
        <g id="yt_icon_rgb" fill="#D9252A">
            <path d="M172.322,19.363 C176,33.177 176,62 176,62 C176,62 176,90.822 172.322,104.638 C170.298,112.259 164.335,118.261 156.762,120.299 C143.037,124 88,124 88,124 C88,124 32.963,124 19.238,120.299 C11.666,118.261 5.702,112.259 3.678,104.638 C0,90.822 0,62 0,62 C0,62 0,33.177 3.678,19.363 C5.702,11.741 11.666,5.739 19.238,3.702 C32.963,0 88,0 88,0 C88,0 143.037,0 156.762,3.702 C164.335,5.739 170.298,11.741 172.322,19.363 Z M70,88.169 L116,62.001 L70,35.831 L70,88.169 Z" id="Combined-Shape"></path>
        </g>
    </g>
</svg>